<?xml version="1.0" standalone="no"?>
<!DOCTYPE svg PUBLIC "-//W3C//DTD SVG 20010904//EN"
 "http://www.w3.org/TR/2001/REC-SVG-20010904/DTD/svg10.dtd">
<svg version="1.0" xmlns="http://www.w3.org/2000/svg"
 width="60.000000pt" height="60.000000pt" viewBox="0 0 60.000000 60.000000"
 preserveAspectRatio="xMidYMid meet">

<g transform="translate(0.000000,60.000000) scale(0.100000,-0.100000)"
fill="#000000" stroke="none">
<path d="M261 466 c-13 -7 -20 -16 -14 -19 5 -3 15 -2 23 4 8 5 35 9 60 9 25
0 52 -4 60 -9 8 -6 18 -7 23 -4 18 11 -38 32 -83 32 -25 0 -56 -6 -69 -13z"/>
<path d="M288 433 c-37 -9 -16 -18 42 -18 61 0 78 8 38 19 -25 6 -54 6 -80 -1z"/>
<path d="M295 380 c-4 -6 10 -10 35 -10 25 0 39 4 35 10 -3 6 -19 10 -35 10
-16 0 -32 -4 -35 -10z"/>
<path d="M177 343 c-43 -3 -60 -9 -70 -24 -6 -10 -17 -19 -23 -19 -15 0 -24
-23 -24 -60 0 -37 9 -60 24 -60 6 0 17 -9 24 -20 11 -18 23 -20 102 -20 71 0
92 3 96 15 8 19 40 19 48 0 4 -12 25 -15 96 -15 79 0 91 2 102 20 7 11 18 20
24 20 15 0 24 23 24 60 0 35 -9 60 -22 60 -5 0 -17 9 -26 20 -15 18 -31 21
-167 24 -82 2 -176 2 -208 -1z m364 -34 c10 -16 12 -109 3 -133 -9 -23 -166
-23 -184 -1 -7 8 -20 15 -30 15 -10 0 -23 -7 -30 -15 -18 -22 -175 -22 -184 1
-8 22 -7 117 2 131 11 17 68 21 251 18 126 -2 165 -5 172 -16z m-441 -69 c0
-22 -4 -40 -10 -40 -5 0 -10 18 -10 40 0 22 5 40 10 40 6 0 10 -18 10 -40z
m480 0 c0 -22 -4 -40 -10 -40 -5 0 -10 18 -10 40 0 22 5 40 10 40 6 0 10 -18
10 -40z"/>
<path d="M270 300 c0 -6 27 -10 60 -10 33 0 60 4 60 10 0 6 -27 10 -60 10 -33
0 -60 -4 -60 -10z"/>
<path d="M168 272 c-26 -15 -37 -32 -22 -32 12 0 64 34 64 42 0 12 -12 9 -42
-10z"/>
<path d="M172 238 c-35 -22 -39 -28 -19 -28 16 1 63 37 57 44 -3 3 -20 -4 -38
-16z"/>
</g>
</svg>
